<svg width="12" height="12" viewBox="0 0 12 12" fill="none" xmlns="http://www.w3.org/2000/svg">
<path d="M4.66634 1.33325H1.99967C1.63148 1.33325 1.33301 1.63173 1.33301 1.99992V4.66659C1.33301 5.03478 1.63148 5.33325 1.99967 5.33325H4.66634C5.03453 5.33325 5.33301 5.03478 5.33301 4.66659V1.99992C5.33301 1.63173 5.03453 1.33325 4.66634 1.33325Z" fill="#151875"/>
<path d="M10.0003 1.33325H7.33366C6.96547 1.33325 6.66699 1.63173 6.66699 1.99992V4.66659C6.66699 5.03478 6.96547 5.33325 7.33366 5.33325H10.0003C10.3685 5.33325 10.667 5.03478 10.667 4.66659V1.99992C10.667 1.63173 10.3685 1.33325 10.0003 1.33325Z" fill="#151875"/>
<path d="M4.66634 6.66675H1.99967C1.63148 6.66675 1.33301 6.96522 1.33301 7.33341V10.0001C1.33301 10.3683 1.63148 10.6667 1.99967 10.6667H4.66634C5.03453 10.6667 5.33301 10.3683 5.33301 10.0001V7.33341C5.33301 6.96522 5.03453 6.66675 4.66634 6.66675Z" fill="#151875"/>
<path d="M10.0003 6.66675H7.33366C6.96547 6.66675 6.66699 6.96522 6.66699 7.33341V10.0001C6.66699 10.3683 6.96547 10.6667 7.33366 10.6667H10.0003C10.3685 10.6667 10.667 10.3683 10.667 10.0001V7.33341C10.667 6.96522 10.3685 6.66675 10.0003 6.66675Z" fill="#151875"/>
</svg>
