<svg width="1920" height="44" viewBox="0 0 1920 44" fill="none" xmlns="http://www.w3.org/2000/svg">
<rect width="1920" height="44" fill="#7E33E0"/>
<path d="M1193.6 14.352H1201.33V16.144H1195.47V19.248H1200.69V21.04H1195.47V24.208H1201.55V26H1193.6V14.352ZM1205.38 19.232L1205.52 20.688L1205.48 20.496C1205.7 20.0267 1206.05 19.6533 1206.52 19.376C1206.98 19.088 1207.54 18.944 1208.18 18.944C1208.82 18.944 1209.35 19.1307 1209.76 19.504C1210.18 19.8773 1210.39 20.368 1210.4 20.976V26H1208.61V21.616C1208.6 21.2747 1208.5 21.0027 1208.32 20.8C1208.14 20.5867 1207.85 20.4747 1207.46 20.464C1207.1 20.464 1206.77 20.576 1206.48 20.8C1206.2 21.0133 1205.97 21.312 1205.8 21.696C1205.64 22.0693 1205.56 22.5013 1205.56 22.992V26H1203.76V19.232H1205.38ZM1216.23 29.376C1215.69 29.376 1215.22 29.312 1214.82 29.184C1214.43 29.056 1214.08 28.8853 1213.77 28.672C1213.47 28.4693 1213.19 28.256 1212.92 28.032L1213.98 26.8C1214.29 27.088 1214.61 27.328 1214.95 27.52C1215.3 27.712 1215.72 27.808 1216.2 27.808C1216.65 27.808 1217.03 27.7333 1217.35 27.584C1217.68 27.4453 1217.94 27.2373 1218.12 26.96C1218.31 26.6933 1218.41 26.3733 1218.41 26V24.32L1218.52 24.656C1218.34 25.072 1218.01 25.4293 1217.53 25.728C1217.05 26.0267 1216.45 26.176 1215.74 26.176C1215.12 26.176 1214.55 26.0213 1214.02 25.712C1213.5 25.392 1213.09 24.96 1212.78 24.416C1212.47 23.872 1212.31 23.2587 1212.31 22.576C1212.31 21.872 1212.48 21.248 1212.81 20.704C1213.14 20.1493 1213.57 19.7173 1214.1 19.408C1214.64 19.088 1215.21 18.928 1215.82 18.928C1216.41 18.928 1216.94 19.0347 1217.4 19.248C1217.87 19.4613 1218.22 19.728 1218.46 20.048L1218.36 20.304L1218.55 19.232H1220.2V26.032C1220.2 26.6613 1220.03 27.2267 1219.69 27.728C1219.36 28.24 1218.89 28.64 1218.3 28.928C1217.71 29.2267 1217.02 29.376 1216.23 29.376ZM1214.12 22.528C1214.12 22.9333 1214.21 23.3013 1214.39 23.632C1214.58 23.9627 1214.84 24.224 1215.16 24.416C1215.49 24.608 1215.86 24.704 1216.26 24.704C1216.62 24.704 1216.94 24.6453 1217.22 24.528C1217.51 24.4107 1217.76 24.2453 1217.96 24.032C1218.16 23.8187 1218.31 23.568 1218.41 23.28V21.808C1218.31 21.52 1218.16 21.2747 1217.94 21.072C1217.74 20.8587 1217.5 20.6933 1217.21 20.576C1216.92 20.4587 1216.61 20.4 1216.26 20.4C1215.86 20.4 1215.49 20.4907 1215.16 20.672C1214.84 20.8533 1214.58 21.104 1214.39 21.424C1214.21 21.744 1214.12 22.112 1214.12 22.528ZM1222.67 13.52H1224.46V26H1222.67V13.52ZM1226.92 19.232H1228.71V26H1226.92V19.232ZM1226.84 16.8C1226.84 16.5227 1226.95 16.2933 1227.16 16.112C1227.38 15.9307 1227.62 15.84 1227.88 15.84C1228.14 15.84 1228.36 15.9307 1228.57 16.112C1228.77 16.2933 1228.87 16.5227 1228.87 16.8C1228.87 17.0773 1228.77 17.3067 1228.57 17.488C1228.36 17.6587 1228.14 17.744 1227.88 17.744C1227.62 17.744 1227.38 17.6533 1227.16 17.472C1226.95 17.2907 1226.84 17.0667 1226.84 16.8ZM1233.2 26.144C1232.69 26.144 1232.2 26.0533 1231.73 25.872C1231.27 25.6907 1230.89 25.424 1230.58 25.072L1231.33 24.064C1231.63 24.352 1231.92 24.5653 1232.21 24.704C1232.51 24.832 1232.79 24.896 1233.06 24.896C1233.26 24.896 1233.44 24.8747 1233.6 24.832C1233.77 24.7787 1233.91 24.6987 1234 24.592C1234.11 24.4853 1234.16 24.3413 1234.16 24.16C1234.16 23.9467 1234.09 23.7813 1233.94 23.664C1233.79 23.536 1233.6 23.4347 1233.36 23.36C1233.13 23.2747 1232.88 23.1947 1232.61 23.12C1232.03 22.928 1231.6 22.6613 1231.31 22.32C1231.03 21.968 1230.88 21.5627 1230.88 21.104C1230.88 20.752 1230.97 20.416 1231.15 20.096C1231.33 19.7653 1231.61 19.4933 1231.99 19.28C1232.36 19.0667 1232.83 18.96 1233.39 18.96C1233.91 18.96 1234.35 19.0187 1234.72 19.136C1235.11 19.2533 1235.46 19.44 1235.79 19.696L1235.11 20.784C1234.91 20.592 1234.68 20.448 1234.42 20.352C1234.16 20.2453 1233.93 20.1867 1233.71 20.176C1233.52 20.1653 1233.35 20.192 1233.2 20.256C1233.05 20.3093 1232.93 20.3893 1232.83 20.496C1232.74 20.6027 1232.69 20.7253 1232.69 20.864C1232.69 21.0773 1232.76 21.248 1232.91 21.376C1233.07 21.504 1233.28 21.6053 1233.52 21.68C1233.77 21.7547 1234.01 21.8347 1234.26 21.92C1234.59 22.016 1234.88 22.1493 1235.12 22.32C1235.38 22.4907 1235.58 22.6987 1235.73 22.944C1235.88 23.1787 1235.95 23.472 1235.95 23.824C1235.95 24.2293 1235.85 24.6133 1235.65 24.976C1235.45 25.328 1235.14 25.6107 1234.74 25.824C1234.33 26.0373 1233.82 26.144 1233.2 26.144ZM1237.94 26V13.52H1239.7V20.72L1239.66 20.448C1239.9 20.0107 1240.24 19.6533 1240.7 19.376C1241.16 19.088 1241.71 18.944 1242.35 18.944C1242.99 18.944 1243.52 19.1307 1243.94 19.504C1244.35 19.8773 1244.56 20.368 1244.58 20.976V26H1242.78V21.616C1242.77 21.2747 1242.68 21.0027 1242.5 20.8C1242.31 20.5867 1242.03 20.4747 1241.63 20.464C1241.27 20.464 1240.94 20.576 1240.66 20.8C1240.37 21.024 1240.14 21.328 1239.97 21.712C1239.81 22.0853 1239.73 22.512 1239.73 22.992V26H1237.94Z" fill="#F1F1F1"/>
<path d="M1283.28 21.808C1283.28 22.2667 1283.4 22.688 1283.63 23.072C1283.88 23.456 1284.2 23.76 1284.59 23.984C1284.99 24.208 1285.43 24.32 1285.92 24.32C1286.43 24.32 1286.89 24.208 1287.3 23.984C1287.7 23.76 1288.02 23.456 1288.26 23.072C1288.49 22.688 1288.61 22.2667 1288.61 21.808V14.352H1290.45V21.856C1290.45 22.6987 1290.25 23.4453 1289.84 24.096C1289.43 24.736 1288.89 25.2373 1288.21 25.6C1287.53 25.952 1286.76 26.128 1285.92 26.128C1285.09 26.128 1284.33 25.952 1283.65 25.6C1282.97 25.2373 1282.42 24.736 1282.02 24.096C1281.62 23.4453 1281.42 22.6987 1281.42 21.856V14.352H1283.28V21.808ZM1299.57 16.72C1299.16 16.5067 1298.71 16.3253 1298.24 16.176C1297.77 16.016 1297.33 15.936 1296.9 15.936C1296.32 15.936 1295.86 16.064 1295.52 16.32C1295.19 16.576 1295.03 16.928 1295.03 17.376C1295.03 17.696 1295.14 17.9787 1295.36 18.224C1295.6 18.4587 1295.9 18.6667 1296.26 18.848C1296.63 19.0187 1297.02 19.184 1297.43 19.344C1297.78 19.472 1298.13 19.6267 1298.47 19.808C1298.82 19.9787 1299.13 20.192 1299.41 20.448C1299.69 20.704 1299.91 21.024 1300.07 21.408C1300.23 21.7813 1300.31 22.2453 1300.31 22.8C1300.31 23.408 1300.15 23.968 1299.84 24.48C1299.54 24.9813 1299.11 25.3813 1298.53 25.68C1297.96 25.9787 1297.26 26.128 1296.44 26.128C1295.94 26.128 1295.46 26.0747 1295 25.968C1294.54 25.8613 1294.1 25.7173 1293.68 25.536C1293.27 25.344 1292.88 25.1307 1292.53 24.896L1293.36 23.44C1293.62 23.632 1293.91 23.808 1294.24 23.968C1294.57 24.128 1294.92 24.256 1295.27 24.352C1295.62 24.448 1295.95 24.496 1296.26 24.496C1296.59 24.496 1296.92 24.4427 1297.24 24.336C1297.57 24.2187 1297.84 24.0373 1298.05 23.792C1298.28 23.5467 1298.39 23.2213 1298.39 22.816C1298.39 22.4853 1298.29 22.2027 1298.1 21.968C1297.92 21.7333 1297.67 21.5307 1297.36 21.36C1297.05 21.1787 1296.72 21.0187 1296.36 20.88C1295.99 20.7413 1295.62 20.5867 1295.25 20.416C1294.88 20.2453 1294.53 20.0373 1294.2 19.792C1293.88 19.536 1293.61 19.2267 1293.41 18.864C1293.21 18.5013 1293.11 18.0533 1293.11 17.52C1293.11 16.88 1293.26 16.3253 1293.56 15.856C1293.85 15.3867 1294.26 15.0133 1294.79 14.736C1295.32 14.4587 1295.93 14.3093 1296.63 14.288C1297.45 14.288 1298.15 14.3893 1298.72 14.592C1299.31 14.784 1299.83 15.0187 1300.28 15.296L1299.57 16.72ZM1302.77 26V14.352H1306.08C1307.24 14.352 1308.22 14.528 1309.03 14.88C1309.85 15.232 1310.51 15.696 1311.01 16.272C1311.51 16.848 1311.88 17.4933 1312.1 18.208C1312.33 18.912 1312.45 19.6213 1312.45 20.336C1312.45 21.2107 1312.3 21.9947 1311.99 22.688C1311.68 23.3813 1311.25 23.9787 1310.71 24.48C1310.17 24.9707 1309.56 25.3493 1308.85 25.616C1308.16 25.872 1307.42 26 1306.64 26H1302.77ZM1304.64 24.208H1306.31C1306.93 24.208 1307.49 24.1227 1308 23.952C1308.52 23.7707 1308.96 23.5147 1309.33 23.184C1309.72 22.8427 1310.01 22.4213 1310.21 21.92C1310.43 21.4187 1310.53 20.848 1310.53 20.208C1310.53 19.4827 1310.41 18.864 1310.16 18.352C1309.93 17.8293 1309.61 17.408 1309.22 17.088C1308.84 16.7573 1308.41 16.5173 1307.96 16.368C1307.5 16.208 1307.04 16.128 1306.6 16.128H1304.64V24.208Z" fill="#F1F1F1"/>
<path d="M1347.6 14.352H1349.47V24.208H1355.2V26H1347.6V14.352ZM1356.75 22.544C1356.75 21.8613 1356.91 21.248 1357.23 20.704C1357.56 20.1493 1358.01 19.7173 1358.59 19.408C1359.17 19.088 1359.82 18.928 1360.56 18.928C1361.32 18.928 1361.97 19.088 1362.53 19.408C1363.09 19.7173 1363.52 20.1493 1363.82 20.704C1364.13 21.248 1364.29 21.8613 1364.29 22.544C1364.29 23.2267 1364.13 23.8453 1363.82 24.4C1363.52 24.944 1363.09 25.376 1362.53 25.696C1361.96 26.016 1361.3 26.176 1360.54 26.176C1359.81 26.176 1359.15 26.032 1358.57 25.744C1358.01 25.4453 1357.56 25.024 1357.23 24.48C1356.91 23.936 1356.75 23.2907 1356.75 22.544ZM1358.56 22.56C1358.56 22.9547 1358.64 23.3173 1358.81 23.648C1358.98 23.968 1359.22 24.224 1359.52 24.416C1359.82 24.608 1360.15 24.704 1360.51 24.704C1360.9 24.704 1361.25 24.608 1361.53 24.416C1361.83 24.224 1362.06 23.968 1362.22 23.648C1362.39 23.3173 1362.48 22.9547 1362.48 22.56C1362.48 22.1547 1362.39 21.792 1362.22 21.472C1362.06 21.1413 1361.83 20.88 1361.53 20.688C1361.25 20.496 1360.9 20.4 1360.51 20.4C1360.14 20.4 1359.8 20.5013 1359.5 20.704C1359.21 20.896 1358.98 21.152 1358.81 21.472C1358.64 21.792 1358.56 22.1547 1358.56 22.56ZM1369.55 29.376C1369 29.376 1368.53 29.312 1368.14 29.184C1367.74 29.056 1367.39 28.8853 1367.08 28.672C1366.78 28.4693 1366.5 28.256 1366.23 28.032L1367.29 26.8C1367.6 27.088 1367.92 27.328 1368.27 27.52C1368.62 27.712 1369.03 27.808 1369.51 27.808C1369.96 27.808 1370.35 27.7333 1370.67 27.584C1371 27.4453 1371.25 27.2373 1371.43 26.96C1371.63 26.6933 1371.72 26.3733 1371.72 26V24.32L1371.83 24.656C1371.65 25.072 1371.32 25.4293 1370.84 25.728C1370.36 26.0267 1369.76 26.176 1369.05 26.176C1368.43 26.176 1367.86 26.0213 1367.34 25.712C1366.81 25.392 1366.4 24.96 1366.09 24.416C1365.78 23.872 1365.63 23.2587 1365.63 22.576C1365.63 21.872 1365.79 21.248 1366.12 20.704C1366.45 20.1493 1366.88 19.7173 1367.42 19.408C1367.95 19.088 1368.52 18.928 1369.13 18.928C1369.73 18.928 1370.25 19.0347 1370.71 19.248C1371.18 19.4613 1371.53 19.728 1371.77 20.048L1371.67 20.304L1371.87 19.232H1373.51V26.032C1373.51 26.6613 1373.34 27.2267 1373 27.728C1372.67 28.24 1372.21 28.64 1371.61 28.928C1371.02 29.2267 1370.33 29.376 1369.55 29.376ZM1367.43 22.528C1367.43 22.9333 1367.52 23.3013 1367.71 23.632C1367.9 23.9627 1368.15 24.224 1368.47 24.416C1368.8 24.608 1369.17 24.704 1369.58 24.704C1369.93 24.704 1370.25 24.6453 1370.54 24.528C1370.83 24.4107 1371.07 24.2453 1371.27 24.032C1371.48 23.8187 1371.63 23.568 1371.72 23.28V21.808C1371.63 21.52 1371.47 21.2747 1371.26 21.072C1371.05 20.8587 1370.81 20.6933 1370.52 20.576C1370.23 20.4587 1369.92 20.4 1369.58 20.4C1369.17 20.4 1368.8 20.4907 1368.47 20.672C1368.15 20.8533 1367.9 21.104 1367.71 21.424C1367.52 21.744 1367.43 22.112 1367.43 22.528ZM1375.98 19.232H1377.77V26H1375.98V19.232ZM1375.9 16.8C1375.9 16.5227 1376.01 16.2933 1376.22 16.112C1376.45 15.9307 1376.69 15.84 1376.94 15.84C1377.2 15.84 1377.43 15.9307 1377.63 16.112C1377.83 16.2933 1377.93 16.5227 1377.93 16.8C1377.93 17.0773 1377.83 17.3067 1377.63 17.488C1377.43 17.6587 1377.2 17.744 1376.94 17.744C1376.69 17.744 1376.45 17.6533 1376.22 17.472C1376.01 17.2907 1375.9 17.0667 1375.9 16.8ZM1381.85 19.232L1381.99 20.688L1381.94 20.496C1382.17 20.0267 1382.51 19.6533 1382.98 19.376C1383.45 19.088 1384.01 18.944 1384.65 18.944C1385.29 18.944 1385.82 19.1307 1386.23 19.504C1386.65 19.8773 1386.86 20.368 1386.87 20.976V26H1385.08V21.616C1385.07 21.2747 1384.97 21.0027 1384.79 20.8C1384.61 20.5867 1384.32 20.4747 1383.93 20.464C1383.57 20.464 1383.24 20.576 1382.95 20.8C1382.66 21.0133 1382.43 21.312 1382.26 21.696C1382.1 22.0693 1382.02 22.5013 1382.02 22.992V26H1380.23V19.232H1381.85Z" fill="#F1F1F1"/>
<path d="M1421.59 14.416H1423.77L1426.65 22.672L1426.34 22.544L1428.58 16.8L1429.45 19.344L1426.25 26.544L1421.59 14.416ZM1427.29 14.416H1429.14L1432.34 22.496L1431.98 22.432L1434.63 14.416H1436.63L1432.09 26.512L1427.29 14.416ZM1438.33 19.232H1440.12V26H1438.33V19.232ZM1438.25 16.8C1438.25 16.5227 1438.35 16.2933 1438.57 16.112C1438.79 15.9307 1439.03 15.84 1439.29 15.84C1439.54 15.84 1439.77 15.9307 1439.97 16.112C1440.18 16.2933 1440.28 16.5227 1440.28 16.8C1440.28 17.0773 1440.18 17.3067 1439.97 17.488C1439.77 17.6587 1439.54 17.744 1439.29 17.744C1439.03 17.744 1438.79 17.6533 1438.57 17.472C1438.35 17.2907 1438.25 17.0667 1438.25 16.8ZM1444.61 26.144C1444.1 26.144 1443.61 26.0533 1443.14 25.872C1442.68 25.6907 1442.29 25.424 1441.98 25.072L1442.74 24.064C1443.03 24.352 1443.33 24.5653 1443.62 24.704C1443.91 24.832 1444.2 24.896 1444.46 24.896C1444.67 24.896 1444.85 24.8747 1445.01 24.832C1445.18 24.7787 1445.31 24.6987 1445.41 24.592C1445.51 24.4853 1445.57 24.3413 1445.57 24.16C1445.57 23.9467 1445.49 23.7813 1445.34 23.664C1445.19 23.536 1445 23.4347 1444.77 23.36C1444.53 23.2747 1444.28 23.1947 1444.02 23.12C1443.44 22.928 1443.01 22.6613 1442.72 22.32C1442.43 21.968 1442.29 21.5627 1442.29 21.104C1442.29 20.752 1442.38 20.416 1442.56 20.096C1442.74 19.7653 1443.02 19.4933 1443.39 19.28C1443.77 19.0667 1444.23 18.96 1444.8 18.96C1445.31 18.96 1445.75 19.0187 1446.13 19.136C1446.51 19.2533 1446.87 19.44 1447.2 19.696L1446.51 20.784C1446.32 20.592 1446.09 20.448 1445.82 20.352C1445.57 20.2453 1445.33 20.1867 1445.12 20.176C1444.93 20.1653 1444.76 20.192 1444.61 20.256C1444.46 20.3093 1444.34 20.3893 1444.24 20.496C1444.14 20.6027 1444.1 20.7253 1444.1 20.864C1444.1 21.0773 1444.17 21.248 1444.32 21.376C1444.48 21.504 1444.68 21.6053 1444.93 21.68C1445.17 21.7547 1445.42 21.8347 1445.66 21.92C1445.99 22.016 1446.28 22.1493 1446.53 22.32C1446.78 22.4907 1446.99 22.6987 1447.14 22.944C1447.29 23.1787 1447.36 23.472 1447.36 23.824C1447.36 24.2293 1447.26 24.6133 1447.06 24.976C1446.85 25.328 1446.55 25.6107 1446.14 25.824C1445.74 26.0373 1445.23 26.144 1444.61 26.144ZM1449.34 26V13.52H1451.1V20.72L1451.07 20.448C1451.3 20.0107 1451.65 19.6533 1452.11 19.376C1452.57 19.088 1453.12 18.944 1453.76 18.944C1454.4 18.944 1454.93 19.1307 1455.34 19.504C1455.76 19.8773 1455.97 20.368 1455.98 20.976V26H1454.19V21.616C1454.18 21.2747 1454.08 21.0027 1453.9 20.8C1453.72 20.5867 1453.43 20.4747 1453.04 20.464C1452.67 20.464 1452.35 20.576 1452.06 20.8C1451.77 21.024 1451.54 21.328 1451.37 21.712C1451.21 22.0853 1451.13 22.512 1451.13 22.992V26H1449.34ZM1458.45 13.52H1460.24V26H1458.45V13.52ZM1462.7 19.232H1464.49V26H1462.7V19.232ZM1462.62 16.8C1462.62 16.5227 1462.73 16.2933 1462.94 16.112C1463.16 15.9307 1463.4 15.84 1463.66 15.84C1463.92 15.84 1464.15 15.9307 1464.35 16.112C1464.55 16.2933 1464.65 16.5227 1464.65 16.8C1464.65 17.0773 1464.55 17.3067 1464.35 17.488C1464.15 17.6587 1463.92 17.744 1463.66 17.744C1463.4 17.744 1463.16 17.6533 1462.94 17.472C1462.73 17.2907 1462.62 17.0667 1462.62 16.8ZM1468.98 26.144C1468.47 26.144 1467.98 26.0533 1467.51 25.872C1467.05 25.6907 1466.67 25.424 1466.36 25.072L1467.11 24.064C1467.41 24.352 1467.7 24.5653 1467.99 24.704C1468.29 24.832 1468.57 24.896 1468.84 24.896C1469.04 24.896 1469.22 24.8747 1469.38 24.832C1469.55 24.7787 1469.69 24.6987 1469.78 24.592C1469.89 24.4853 1469.94 24.3413 1469.94 24.16C1469.94 23.9467 1469.87 23.7813 1469.72 23.664C1469.57 23.536 1469.38 23.4347 1469.14 23.36C1468.91 23.2747 1468.66 23.1947 1468.39 23.12C1467.81 22.928 1467.38 22.6613 1467.09 22.32C1466.81 21.968 1466.66 21.5627 1466.66 21.104C1466.66 20.752 1466.75 20.416 1466.93 20.096C1467.12 19.7653 1467.39 19.4933 1467.77 19.28C1468.14 19.0667 1468.61 18.96 1469.17 18.96C1469.69 18.96 1470.13 19.0187 1470.5 19.136C1470.89 19.2533 1471.24 19.44 1471.57 19.696L1470.89 20.784C1470.69 20.592 1470.47 20.448 1470.2 20.352C1469.94 20.2453 1469.71 20.1867 1469.49 20.176C1469.3 20.1653 1469.13 20.192 1468.98 20.256C1468.83 20.3093 1468.71 20.3893 1468.61 20.496C1468.52 20.6027 1468.47 20.7253 1468.47 20.864C1468.47 21.0773 1468.55 21.248 1468.69 21.376C1468.85 21.504 1469.06 21.6053 1469.3 21.68C1469.55 21.7547 1469.79 21.8347 1470.04 21.92C1470.37 22.016 1470.66 22.1493 1470.9 22.32C1471.16 22.4907 1471.36 22.6987 1471.51 22.944C1471.66 23.1787 1471.73 23.472 1471.73 23.824C1471.73 24.2293 1471.63 24.6133 1471.43 24.976C1471.23 25.328 1470.92 25.6107 1470.52 25.824C1470.11 26.0373 1469.6 26.144 1468.98 26.144ZM1474.37 16.256H1476.16V19.232H1477.92V20.64H1476.16V26H1474.37V20.64H1473.2V19.232H1474.37V16.256Z" fill="#F1F1F1"/>
<path d="M405.848 18.232L405.992 19.608L405.944 19.496C406.2 19.0053 406.547 18.6213 406.984 18.344C407.432 18.0667 407.949 17.928 408.536 17.928C408.909 17.928 409.24 17.9867 409.528 18.104C409.816 18.2213 410.056 18.3867 410.248 18.6C410.451 18.8133 410.579 19.08 410.632 19.4L410.552 19.432C410.829 18.9733 411.187 18.6107 411.624 18.344C412.061 18.0667 412.525 17.928 413.016 17.928C413.677 17.928 414.205 18.12 414.6 18.504C414.995 18.8773 415.197 19.3627 415.208 19.96V25H413.432V20.648C413.421 20.328 413.352 20.0613 413.224 19.848C413.096 19.624 412.856 19.5013 412.504 19.48C412.12 19.48 411.784 19.6027 411.496 19.848C411.219 20.0827 411.005 20.392 410.856 20.776C410.707 21.1493 410.627 21.544 410.616 21.96V25H408.824V20.648C408.813 20.328 408.739 20.0613 408.6 19.848C408.461 19.624 408.216 19.5013 407.864 19.48C407.491 19.48 407.165 19.6027 406.888 19.848C406.611 20.0827 406.397 20.392 406.248 20.776C406.099 21.1493 406.024 21.544 406.024 21.96V25H404.232V18.232H405.848ZM417.67 25V12.52H419.43V19.72L419.398 19.448C419.632 19.0107 419.979 18.6533 420.438 18.376C420.896 18.088 421.446 17.944 422.086 17.944C422.726 17.944 423.254 18.1307 423.67 18.504C424.086 18.8773 424.299 19.368 424.31 19.976V25H422.518V20.616C422.507 20.2747 422.411 20.0027 422.23 19.8C422.048 19.5867 421.76 19.4747 421.366 19.464C421.003 19.464 420.678 19.576 420.39 19.8C420.102 20.024 419.872 20.328 419.702 20.712C419.542 21.0853 419.462 21.512 419.462 21.992V25H417.67ZM426.779 25V12.52H428.539V19.72L428.507 19.448C428.742 19.0107 429.088 18.6533 429.547 18.376C430.006 18.088 430.555 17.944 431.195 17.944C431.835 17.944 432.363 18.1307 432.779 18.504C433.195 18.8773 433.408 19.368 433.419 19.976V25H431.627V20.616C431.616 20.2747 431.52 20.0027 431.339 19.8C431.158 19.5867 430.87 19.4747 430.475 19.464C430.112 19.464 429.787 19.576 429.499 19.8C429.211 20.024 428.982 20.328 428.811 20.712C428.651 21.0853 428.571 21.512 428.571 21.992V25H426.779ZM438.72 25.176C438.091 25.176 437.515 25.0427 436.992 24.776C436.48 24.5093 436.075 24.1147 435.776 23.592C435.478 23.0587 435.328 22.4027 435.328 21.624C435.328 20.856 435.483 20.2 435.792 19.656C436.112 19.1013 436.528 18.6747 437.04 18.376C437.563 18.0773 438.128 17.928 438.736 17.928C439.387 17.928 439.91 18.0613 440.304 18.328C440.71 18.584 441.024 18.8827 441.248 19.224L441.152 19.48L441.328 18.232H442.976V25H441.184V23.352L441.36 23.784C441.328 23.848 441.243 23.9547 441.104 24.104C440.976 24.2427 440.8 24.3973 440.576 24.568C440.352 24.7387 440.086 24.8827 439.776 25C439.478 25.1173 439.126 25.176 438.72 25.176ZM439.216 23.704C439.547 23.704 439.846 23.6453 440.112 23.528C440.379 23.4107 440.603 23.2453 440.784 23.032C440.966 22.8187 441.099 22.5627 441.184 22.264V20.792C441.099 20.5147 440.96 20.2747 440.768 20.072C440.576 19.8587 440.342 19.6933 440.064 19.576C439.798 19.4587 439.499 19.4 439.168 19.4C438.795 19.4 438.454 19.4907 438.144 19.672C437.846 19.8533 437.6 20.104 437.408 20.424C437.227 20.744 437.136 21.112 437.136 21.528C437.136 21.9333 437.232 22.3013 437.424 22.632C437.616 22.9627 437.872 23.224 438.192 23.416C438.512 23.608 438.854 23.704 439.216 23.704ZM447.467 25.144C446.955 25.144 446.464 25.0533 445.995 24.872C445.536 24.6907 445.152 24.424 444.843 24.072L445.595 23.064C445.894 23.352 446.187 23.5653 446.475 23.704C446.774 23.832 447.056 23.896 447.323 23.896C447.526 23.896 447.707 23.8747 447.867 23.832C448.038 23.7787 448.171 23.6987 448.267 23.592C448.374 23.4853 448.427 23.3413 448.427 23.16C448.427 22.9467 448.352 22.7813 448.203 22.664C448.054 22.536 447.862 22.4347 447.627 22.36C447.392 22.2747 447.142 22.1947 446.875 22.12C446.299 21.928 445.867 21.6613 445.579 21.32C445.291 20.968 445.147 20.5627 445.147 20.104C445.147 19.752 445.238 19.416 445.419 19.096C445.6 18.7653 445.878 18.4933 446.251 18.28C446.624 18.0667 447.094 17.96 447.659 17.96C448.171 17.96 448.614 18.0187 448.987 18.136C449.371 18.2533 449.728 18.44 450.059 18.696L449.371 19.784C449.179 19.592 448.95 19.448 448.683 19.352C448.427 19.2453 448.192 19.1867 447.979 19.176C447.787 19.1653 447.616 19.192 447.467 19.256C447.318 19.3093 447.195 19.3893 447.099 19.496C447.003 19.6027 446.955 19.7253 446.955 19.864C446.955 20.0773 447.03 20.248 447.179 20.376C447.339 20.504 447.542 20.6053 447.787 20.68C448.032 20.7547 448.278 20.8347 448.523 20.92C448.854 21.016 449.142 21.1493 449.387 21.32C449.643 21.4907 449.846 21.6987 449.995 21.944C450.144 22.1787 450.219 22.472 450.219 22.824C450.219 23.2293 450.118 23.6133 449.915 23.976C449.712 24.328 449.408 24.6107 449.003 24.824C448.598 25.0373 448.086 25.144 447.467 25.144ZM455.033 25.176C454.403 25.176 453.827 25.0427 453.305 24.776C452.793 24.5093 452.387 24.1147 452.089 23.592C451.79 23.0587 451.641 22.4027 451.641 21.624C451.641 20.856 451.795 20.2 452.105 19.656C452.425 19.1013 452.841 18.6747 453.353 18.376C453.875 18.0773 454.441 17.928 455.049 17.928C455.699 17.928 456.222 18.0613 456.617 18.328C457.022 18.584 457.337 18.8827 457.561 19.224L457.465 19.48L457.641 18.232H459.289V25H457.497V23.352L457.673 23.784C457.641 23.848 457.555 23.9547 457.417 24.104C457.289 24.2427 457.113 24.3973 456.889 24.568C456.665 24.7387 456.398 24.8827 456.089 25C455.79 25.1173 455.438 25.176 455.033 25.176ZM455.529 23.704C455.859 23.704 456.158 23.6453 456.425 23.528C456.691 23.4107 456.915 23.2453 457.097 23.032C457.278 22.8187 457.411 22.5627 457.497 22.264V20.792C457.411 20.5147 457.273 20.2747 457.081 20.072C456.889 19.8587 456.654 19.6933 456.377 19.576C456.11 19.4587 455.811 19.4 455.481 19.4C455.107 19.4 454.766 19.4907 454.457 19.672C454.158 19.8533 453.913 20.104 453.721 20.424C453.539 20.744 453.449 21.112 453.449 21.528C453.449 21.9333 453.545 22.3013 453.737 22.632C453.929 22.9627 454.185 23.224 454.505 23.416C454.825 23.608 455.166 23.704 455.529 23.704ZM463.364 18.232L463.508 19.688L463.46 19.496C463.684 19.0267 464.03 18.6533 464.5 18.376C464.969 18.088 465.524 17.944 466.164 17.944C466.804 17.944 467.332 18.1307 467.748 18.504C468.164 18.8773 468.377 19.368 468.388 19.976V25H466.596V20.616C466.585 20.2747 466.489 20.0027 466.308 19.8C466.126 19.5867 465.838 19.4747 465.444 19.464C465.081 19.464 464.756 19.576 464.468 19.8C464.18 20.0133 463.95 20.312 463.78 20.696C463.62 21.0693 463.54 21.5013 463.54 21.992V25H461.748V18.232H463.364ZM473.033 25.288C472.414 25.288 471.902 25.1013 471.497 24.728C471.092 24.344 470.878 23.8533 470.857 23.256V18.232H472.649V22.616C472.67 22.9467 472.766 23.2187 472.937 23.432C473.108 23.6453 473.38 23.752 473.753 23.752C474.105 23.752 474.414 23.6453 474.681 23.432C474.958 23.208 475.177 22.904 475.337 22.52C475.497 22.136 475.577 21.704 475.577 21.224V18.232H477.369V25H475.753L475.609 23.512L475.657 23.736C475.518 24.0347 475.321 24.3013 475.065 24.536C474.809 24.7707 474.505 24.952 474.153 25.08C473.812 25.2187 473.438 25.288 473.033 25.288ZM479.826 12.52H481.618V25H479.826V12.52ZM489.98 28.552C489.105 28.552 488.278 28.424 487.5 28.168C486.721 27.912 486.028 27.5227 485.42 27C484.822 26.488 484.353 25.8427 484.012 25.064C483.681 24.2853 483.516 23.368 483.516 22.312C483.516 21.64 483.617 20.9413 483.82 20.216C484.033 19.48 484.358 18.7707 484.796 18.088C485.244 17.4053 485.82 16.792 486.524 16.248C487.228 15.704 488.07 15.272 489.052 14.952C490.044 14.6213 491.19 14.456 492.492 14.456C493.505 14.456 494.401 14.6053 495.18 14.904C495.958 15.192 496.62 15.6027 497.164 16.136C497.708 16.6587 498.118 17.2667 498.396 17.96C498.684 18.6533 498.828 19.4 498.828 20.2C498.828 20.8613 498.726 21.4907 498.524 22.088C498.321 22.6747 498.038 23.1973 497.676 23.656C497.324 24.1147 496.897 24.4773 496.396 24.744C495.894 25 495.345 25.128 494.748 25.128C494.3 25.128 493.91 25.0213 493.58 24.808C493.26 24.5947 493.025 24.3013 492.876 23.928C492.726 23.5547 492.694 23.1227 492.78 22.632L493.084 23.448C492.924 23.704 492.678 23.9653 492.348 24.232C492.028 24.4987 491.665 24.7227 491.26 24.904C490.854 25.0853 490.433 25.176 489.996 25.176C489.409 25.176 488.881 25.0533 488.412 24.808C487.953 24.552 487.59 24.1893 487.324 23.72C487.057 23.2507 486.929 22.6853 486.94 22.024C486.94 21.2667 487.105 20.5787 487.436 19.96C487.766 19.3307 488.225 18.8347 488.812 18.472C489.409 18.1093 490.092 17.928 490.86 17.928C491.329 17.928 491.713 17.9867 492.012 18.104C492.321 18.2213 492.572 18.3813 492.764 18.584C492.956 18.776 493.116 18.9893 493.244 19.224L493.516 18.232H495.212L494.62 22.52C494.598 22.7013 494.598 22.872 494.62 23.032C494.641 23.1813 494.7 23.2987 494.796 23.384C494.892 23.4587 495.025 23.496 495.196 23.496C495.43 23.496 495.665 23.416 495.9 23.256C496.134 23.0853 496.342 22.8507 496.524 22.552C496.716 22.2533 496.87 21.9067 496.988 21.512C497.105 21.1067 497.164 20.6693 497.164 20.2C497.164 19.4107 496.977 18.6907 496.604 18.04C496.23 17.3787 495.681 16.8507 494.956 16.456C494.23 16.0613 493.324 15.864 492.236 15.864C491.094 15.864 490.113 16.0187 489.292 16.328C488.481 16.6373 487.804 17.048 487.26 17.56C486.726 18.0613 486.305 18.6 485.996 19.176C485.686 19.752 485.462 20.312 485.324 20.856C485.196 21.4 485.132 21.8693 485.132 22.264C485.132 23.1173 485.26 23.8533 485.516 24.472C485.782 25.08 486.15 25.5813 486.62 25.976C487.089 26.3707 487.633 26.664 488.252 26.856C488.87 27.0587 489.537 27.16 490.252 27.16C490.87 27.16 491.478 27.0587 492.076 26.856C492.684 26.664 493.249 26.4027 493.772 26.072L494.508 27.112C494.092 27.432 493.622 27.6987 493.1 27.912C492.577 28.1253 492.049 28.2853 491.516 28.392C490.982 28.4987 490.47 28.552 489.98 28.552ZM490.7 23.704C491.02 23.704 491.313 23.6453 491.58 23.528C491.846 23.4107 492.081 23.2453 492.284 23.032C492.497 22.8187 492.668 22.5627 492.796 22.264L493.004 20.792C492.961 20.5147 492.854 20.2747 492.684 20.072C492.513 19.8587 492.294 19.6933 492.028 19.576C491.772 19.4587 491.478 19.4 491.148 19.4C490.721 19.4 490.332 19.512 489.98 19.736C489.628 19.96 489.35 20.2533 489.148 20.616C488.945 20.9787 488.844 21.3733 488.844 21.8C488.844 22.152 488.918 22.472 489.068 22.76C489.228 23.048 489.446 23.2773 489.724 23.448C490.012 23.6187 490.337 23.704 490.7 23.704ZM504.092 28.376C503.548 28.376 503.079 28.312 502.684 28.184C502.289 28.056 501.937 27.8853 501.628 27.672C501.329 27.4693 501.047 27.256 500.78 27.032L501.836 25.8C502.145 26.088 502.471 26.328 502.812 26.52C503.164 26.712 503.58 26.808 504.06 26.808C504.508 26.808 504.892 26.7333 505.212 26.584C505.543 26.4453 505.799 26.2373 505.98 25.96C506.172 25.6933 506.268 25.3733 506.268 25V23.32L506.38 23.656C506.199 24.072 505.868 24.4293 505.388 24.728C504.908 25.0267 504.311 25.176 503.596 25.176C502.977 25.176 502.407 25.0213 501.884 24.712C501.361 24.392 500.945 23.96 500.636 23.416C500.327 22.872 500.172 22.2587 500.172 21.576C500.172 20.872 500.337 20.248 500.668 19.704C500.999 19.1493 501.431 18.7173 501.964 18.408C502.497 18.088 503.068 17.928 503.676 17.928C504.273 17.928 504.801 18.0347 505.26 18.248C505.729 18.4613 506.081 18.728 506.316 19.048L506.22 19.304L506.412 18.232H508.06V25.032C508.06 25.6613 507.889 26.2267 507.548 26.728C507.217 27.24 506.753 27.64 506.156 27.928C505.569 28.2267 504.881 28.376 504.092 28.376ZM501.98 21.528C501.98 21.9333 502.071 22.3013 502.252 22.632C502.444 22.9627 502.7 23.224 503.02 23.416C503.351 23.608 503.719 23.704 504.124 23.704C504.476 23.704 504.796 23.6453 505.084 23.528C505.372 23.4107 505.617 23.2453 505.82 23.032C506.023 22.8187 506.172 22.568 506.268 22.28V20.808C506.172 20.52 506.017 20.2747 505.804 20.072C505.601 19.8587 505.356 19.6933 505.068 19.576C504.78 19.4587 504.465 19.4 504.124 19.4C503.719 19.4 503.351 19.4907 503.02 19.672C502.7 19.8533 502.444 20.104 502.252 20.424C502.071 20.744 501.98 21.112 501.98 21.528ZM512.145 18.232L512.289 19.608L512.241 19.496C512.497 19.0053 512.844 18.6213 513.281 18.344C513.729 18.0667 514.246 17.928 514.833 17.928C515.206 17.928 515.537 17.9867 515.825 18.104C516.113 18.2213 516.353 18.3867 516.545 18.6C516.748 18.8133 516.876 19.08 516.929 19.4L516.849 19.432C517.126 18.9733 517.484 18.6107 517.921 18.344C518.358 18.0667 518.822 17.928 519.313 17.928C519.974 17.928 520.502 18.12 520.897 18.504C521.292 18.8773 521.494 19.3627 521.505 19.96V25H519.729V20.648C519.718 20.328 519.649 20.0613 519.521 19.848C519.393 19.624 519.153 19.5013 518.801 19.48C518.417 19.48 518.081 19.6027 517.793 19.848C517.516 20.0827 517.302 20.392 517.153 20.776C517.004 21.1493 516.924 21.544 516.913 21.96V25H515.121V20.648C515.11 20.328 515.036 20.0613 514.897 19.848C514.758 19.624 514.513 19.5013 514.161 19.48C513.788 19.48 513.462 19.6027 513.185 19.848C512.908 20.0827 512.694 20.392 512.545 20.776C512.396 21.1493 512.321 21.544 512.321 21.96V25H510.529V18.232H512.145ZM526.798 25.176C526.169 25.176 525.593 25.0427 525.07 24.776C524.558 24.5093 524.153 24.1147 523.854 23.592C523.556 23.0587 523.406 22.4027 523.406 21.624C523.406 20.856 523.561 20.2 523.87 19.656C524.19 19.1013 524.606 18.6747 525.118 18.376C525.641 18.0773 526.206 17.928 526.814 17.928C527.465 17.928 527.988 18.0613 528.382 18.328C528.788 18.584 529.102 18.8827 529.326 19.224L529.23 19.48L529.406 18.232H531.054V25H529.262V23.352L529.438 23.784C529.406 23.848 529.321 23.9547 529.182 24.104C529.054 24.2427 528.878 24.3973 528.654 24.568C528.43 24.7387 528.164 24.8827 527.854 25C527.556 25.1173 527.204 25.176 526.798 25.176ZM527.294 23.704C527.625 23.704 527.924 23.6453 528.19 23.528C528.457 23.4107 528.681 23.2453 528.862 23.032C529.044 22.8187 529.177 22.5627 529.262 22.264V20.792C529.177 20.5147 529.038 20.2747 528.846 20.072C528.654 19.8587 528.42 19.6933 528.142 19.576C527.876 19.4587 527.577 19.4 527.246 19.4C526.873 19.4 526.532 19.4907 526.222 19.672C525.924 19.8533 525.678 20.104 525.486 20.424C525.305 20.744 525.214 21.112 525.214 21.528C525.214 21.9333 525.31 22.3013 525.502 22.632C525.694 22.9627 525.95 23.224 526.27 23.416C526.59 23.608 526.932 23.704 527.294 23.704ZM533.513 18.232H535.305V25H533.513V18.232ZM533.433 15.8C533.433 15.5227 533.54 15.2933 533.753 15.112C533.977 14.9307 534.217 14.84 534.473 14.84C534.729 14.84 534.959 14.9307 535.161 15.112C535.364 15.2933 535.465 15.5227 535.465 15.8C535.465 16.0773 535.364 16.3067 535.161 16.488C534.959 16.6587 534.729 16.744 534.473 16.744C534.217 16.744 533.977 16.6533 533.753 16.472C533.54 16.2907 533.433 16.0667 533.433 15.8ZM537.763 12.52H539.555V25H537.763V12.52ZM541.197 24.024C541.197 23.7573 541.299 23.528 541.501 23.336C541.704 23.144 541.928 23.048 542.173 23.048C542.397 23.048 542.611 23.144 542.813 23.336C543.016 23.528 543.117 23.7573 543.117 24.024C543.117 24.3227 543.016 24.5627 542.813 24.744C542.611 24.9147 542.397 25 542.173 25C541.928 25 541.704 24.9147 541.501 24.744C541.299 24.5627 541.197 24.3227 541.197 24.024ZM550.332 24.376C550.033 24.6213 549.665 24.8187 549.228 24.968C548.801 25.1067 548.369 25.176 547.932 25.176C547.185 25.176 546.529 25.032 545.964 24.744C545.399 24.4453 544.956 24.0347 544.636 23.512C544.327 22.9787 544.172 22.344 544.172 21.608C544.172 20.872 544.337 20.2373 544.668 19.704C545.009 19.1707 545.452 18.7653 545.996 18.488C546.551 18.2 547.132 18.056 547.74 18.056C548.316 18.056 548.823 18.136 549.26 18.296C549.697 18.4453 550.071 18.6533 550.38 18.92L549.5 20.088C549.329 19.9493 549.105 19.8213 548.828 19.704C548.561 19.576 548.252 19.512 547.9 19.512C547.548 19.512 547.223 19.6027 546.924 19.784C546.625 19.9653 546.391 20.216 546.22 20.536C546.049 20.8453 545.964 21.2027 545.964 21.608C545.964 21.992 546.055 22.344 546.236 22.664C546.417 22.984 546.663 23.24 546.972 23.432C547.292 23.6133 547.66 23.704 548.076 23.704C548.353 23.704 548.604 23.6667 548.828 23.592C549.052 23.5067 549.255 23.3947 549.436 23.256L550.332 24.376ZM551.61 21.544C551.61 20.8613 551.77 20.248 552.09 19.704C552.42 19.1493 552.874 18.7173 553.45 18.408C554.026 18.088 554.682 17.928 555.418 17.928C556.175 17.928 556.831 18.088 557.386 18.408C557.951 18.7173 558.383 19.1493 558.682 19.704C558.991 20.248 559.146 20.8613 559.146 21.544C559.146 22.2267 558.991 22.8453 558.682 23.4C558.383 23.944 557.951 24.376 557.386 24.696C556.82 25.016 556.159 25.176 555.402 25.176C554.666 25.176 554.01 25.032 553.434 24.744C552.868 24.4453 552.42 24.024 552.09 23.48C551.77 22.936 551.61 22.2907 551.61 21.544ZM553.418 21.56C553.418 21.9547 553.503 22.3173 553.674 22.648C553.844 22.968 554.079 23.224 554.378 23.416C554.676 23.608 555.007 23.704 555.37 23.704C555.764 23.704 556.106 23.608 556.394 23.416C556.692 23.224 556.922 22.968 557.082 22.648C557.252 22.3173 557.338 21.9547 557.338 21.56C557.338 21.1547 557.252 20.792 557.082 20.472C556.922 20.1413 556.692 19.88 556.394 19.688C556.106 19.496 555.764 19.4 555.37 19.4C554.996 19.4 554.66 19.5013 554.362 19.704C554.074 19.896 553.844 20.152 553.674 20.472C553.503 20.792 553.418 21.1547 553.418 21.56ZM562.661 18.232L562.805 19.608L562.757 19.496C563.013 19.0053 563.359 18.6213 563.797 18.344C564.245 18.0667 564.762 17.928 565.349 17.928C565.722 17.928 566.053 17.9867 566.341 18.104C566.629 18.2213 566.869 18.3867 567.061 18.6C567.263 18.8133 567.391 19.08 567.445 19.4L567.365 19.432C567.642 18.9733 567.999 18.6107 568.437 18.344C568.874 18.0667 569.338 17.928 569.829 17.928C570.49 17.928 571.018 18.12 571.413 18.504C571.807 18.8773 572.01 19.3627 572.021 19.96V25H570.245V20.648C570.234 20.328 570.165 20.0613 570.037 19.848C569.909 19.624 569.669 19.5013 569.317 19.48C568.933 19.48 568.597 19.6027 568.309 19.848C568.031 20.0827 567.818 20.392 567.669 20.776C567.519 21.1493 567.439 21.544 567.429 21.96V25H565.637V20.648C565.626 20.328 565.551 20.0613 565.413 19.848C565.274 19.624 565.029 19.5013 564.677 19.48C564.303 19.48 563.978 19.6027 563.701 19.848C563.423 20.0827 563.21 20.392 563.061 20.776C562.911 21.1493 562.837 21.544 562.837 21.96V25H561.045V18.232H562.661Z" fill="#F1F1F1"/>
<path d="M651.456 21.28C651.456 20.192 651.584 19.1787 651.84 18.24C652.107 17.2907 652.443 16.448 652.848 15.712C653.253 14.976 653.68 14.368 654.128 13.888L655.568 14.624C655.163 15.104 654.789 15.6747 654.448 16.336C654.107 16.9867 653.835 17.728 653.632 18.56C653.429 19.3813 653.328 20.288 653.328 21.28C653.328 22.272 653.429 23.184 653.632 24.016C653.835 24.8373 654.107 25.5733 654.448 26.224C654.789 26.8747 655.163 27.44 655.568 27.92L654.128 28.672C653.68 28.1813 653.253 27.568 652.848 26.832C652.443 26.096 652.107 25.2587 651.84 24.32C651.584 23.3707 651.456 22.3573 651.456 21.28ZM657.316 15.44H660.244V26H658.372V17.232H657.316V15.44ZM662.708 26C663.369 25.328 664.009 24.6773 664.628 24.048C665.246 23.4187 665.801 22.8107 666.292 22.224C666.782 21.6267 667.166 21.0507 667.444 20.496C667.732 19.9413 667.876 19.408 667.876 18.896C667.876 18.5973 667.828 18.336 667.732 18.112C667.636 17.888 667.502 17.7013 667.332 17.552C667.161 17.4027 666.964 17.2907 666.74 17.216C666.526 17.1413 666.292 17.104 666.036 17.104C665.726 17.104 665.46 17.152 665.236 17.248C665.012 17.344 664.83 17.472 664.692 17.632C664.553 17.7813 664.446 17.9467 664.372 18.128C664.297 18.2987 664.26 18.4747 664.26 18.656C664.26 19.008 664.313 19.3227 664.42 19.6C664.537 19.8667 664.692 20.1013 664.884 20.304L663.748 21.344C663.47 21.184 663.236 20.9493 663.044 20.64C662.852 20.32 662.702 19.984 662.596 19.632C662.5 19.28 662.452 18.9707 662.452 18.704C662.452 18.1173 662.601 17.568 662.9 17.056C663.209 16.544 663.652 16.128 664.228 15.808C664.814 15.4773 665.524 15.312 666.356 15.312C667.049 15.312 667.652 15.472 668.164 15.792C668.686 16.1013 669.092 16.5173 669.38 17.04C669.668 17.5627 669.812 18.128 669.812 18.736C669.812 19.248 669.716 19.7493 669.524 20.24C669.342 20.72 669.092 21.2 668.772 21.68C668.452 22.1493 668.094 22.6133 667.7 23.072C667.316 23.5307 666.926 23.9947 666.532 24.464L665.7 24.208H670.068V26H662.708ZM677.917 15.44L675.261 20L674.205 19.472C674.333 19.408 674.472 19.36 674.621 19.328C674.77 19.296 674.914 19.28 675.053 19.28C675.448 19.2693 675.832 19.3173 676.205 19.424C676.578 19.52 676.914 19.6907 677.213 19.936C677.512 20.1813 677.752 20.512 677.933 20.928C678.114 21.344 678.205 21.8613 678.205 22.48C678.205 23.2373 678.029 23.888 677.677 24.432C677.336 24.976 676.877 25.3973 676.301 25.696C675.736 25.984 675.117 26.128 674.445 26.128C673.933 26.128 673.405 26.0213 672.861 25.808C672.328 25.5947 671.896 25.312 671.565 24.96L672.509 23.424C672.69 23.648 672.952 23.856 673.293 24.048C673.645 24.24 674.013 24.336 674.397 24.336C674.728 24.336 675.032 24.2613 675.309 24.112C675.597 23.952 675.832 23.728 676.013 23.44C676.194 23.1413 676.285 22.784 676.285 22.368C676.285 21.8133 676.125 21.376 675.805 21.056C675.485 20.736 675.042 20.576 674.477 20.576C674.168 20.576 673.917 20.5973 673.725 20.64C673.533 20.672 673.352 20.7147 673.181 20.768L673.133 20.72L675.373 16.992L675.933 17.232H672.285V15.44H677.917ZM679.395 23.536L685.939 15.312H685.971V22.128H687.283V23.552H685.971V26H684.099V23.536H679.395ZM684.195 19.456L682.083 22.208L681.859 22.128H684.099V19.232L684.195 19.456ZM691.779 26.128C691.182 26.128 690.606 26.0213 690.051 25.808C689.507 25.584 689.075 25.312 688.755 24.992L689.731 23.536C689.934 23.7707 690.211 23.968 690.563 24.128C690.926 24.2773 691.278 24.352 691.619 24.352C691.96 24.352 692.264 24.2773 692.531 24.128C692.798 23.9787 693.006 23.7707 693.155 23.504C693.315 23.2373 693.395 22.9227 693.395 22.56C693.395 22.1653 693.32 21.8187 693.171 21.52C693.032 21.2213 692.819 20.9867 692.531 20.816C692.243 20.6453 691.896 20.56 691.491 20.56C691.139 20.56 690.803 20.608 690.483 20.704C690.174 20.8 689.838 20.9547 689.475 21.168H689.459V15.44H694.595V17.232H691.059V19.52L690.835 19.136C691.006 19.0933 691.182 19.0613 691.363 19.04C691.555 19.008 691.747 18.992 691.939 18.992C692.664 18.992 693.278 19.152 693.779 19.472C694.28 19.792 694.659 20.2187 694.915 20.752C695.182 21.2853 695.315 21.8667 695.315 22.496C695.315 23.1787 695.16 23.7973 694.851 24.352C694.542 24.896 694.12 25.328 693.587 25.648C693.054 25.968 692.451 26.128 691.779 26.128ZM701.355 21.28C701.355 22.3573 701.221 23.3707 700.955 24.32C700.699 25.2587 700.368 26.096 699.963 26.832C699.568 27.5787 699.141 28.192 698.683 28.672L697.243 27.92C697.659 27.4507 698.032 26.8853 698.363 26.224C698.704 25.5733 698.976 24.8373 699.179 24.016C699.381 23.184 699.483 22.272 699.483 21.28C699.483 20.288 699.381 19.3813 699.179 18.56C698.976 17.728 698.704 16.9867 698.363 16.336C698.032 15.6747 697.659 15.1093 697.243 14.64L698.683 13.888C699.141 14.368 699.568 14.9813 699.963 15.728C700.368 16.464 700.699 17.3013 700.955 18.24C701.221 19.1787 701.355 20.192 701.355 21.28ZM707.183 26.128C706.447 26.128 705.785 25.9573 705.199 25.616C704.612 25.264 704.143 24.7627 703.791 24.112C703.449 23.4507 703.279 22.6613 703.279 21.744C703.279 21.072 703.407 20.432 703.663 19.824C703.919 19.216 704.271 18.64 704.719 18.096C705.167 17.5413 705.673 17.0293 706.239 16.56C706.804 16.0907 707.396 15.664 708.015 15.28L709.263 16.624C708.399 17.008 707.679 17.4667 707.103 18C706.537 18.5333 706.105 19.0773 705.807 19.632C705.519 20.1867 705.359 20.704 705.327 21.184L704.863 21.12C705.151 20.5013 705.524 20.0213 705.983 19.68C706.441 19.328 707.049 19.152 707.807 19.152C708.34 19.152 708.847 19.3013 709.327 19.6C709.807 19.888 710.196 20.2827 710.495 20.784C710.804 21.2853 710.959 21.872 710.959 22.544C710.959 23.28 710.777 23.92 710.415 24.464C710.052 24.9973 709.583 25.408 709.007 25.696C708.441 25.984 707.833 26.128 707.183 26.128ZM707.103 24.464C707.465 24.464 707.791 24.3893 708.079 24.24C708.367 24.08 708.596 23.856 708.767 23.568C708.937 23.28 709.023 22.9387 709.023 22.544C709.023 22.1707 708.937 21.8507 708.767 21.584C708.596 21.3067 708.361 21.0933 708.063 20.944C707.775 20.7947 707.455 20.72 707.103 20.72C706.751 20.72 706.431 20.7947 706.143 20.944C705.855 21.0827 705.62 21.2747 705.439 21.52C705.268 21.7653 705.183 22.032 705.183 22.32V22.64C705.183 22.96 705.268 23.2587 705.439 23.536C705.609 23.8133 705.839 24.0373 706.127 24.208C706.425 24.3787 706.751 24.464 707.103 24.464ZM719.083 15.44L714.971 26H712.891L716.475 16.992L717.099 17.232H712.091V15.44H719.083ZM719.821 22.64C719.821 22.0853 719.922 21.616 720.125 21.232C720.328 20.8373 720.584 20.512 720.893 20.256C721.202 19.9893 721.501 19.7813 721.789 19.632C721.512 19.4187 721.277 19.168 721.085 18.88C720.893 18.592 720.797 18.2133 720.797 17.744C720.797 17.2747 720.92 16.8587 721.165 16.496C721.421 16.1227 721.768 15.8347 722.205 15.632C722.642 15.4187 723.128 15.312 723.661 15.312C724.205 15.312 724.69 15.4187 725.117 15.632C725.554 15.8347 725.901 16.112 726.157 16.464C726.424 16.816 726.557 17.216 726.557 17.664C726.557 18.176 726.456 18.576 726.253 18.864C726.061 19.152 725.821 19.408 725.533 19.632C725.832 19.792 726.13 20.0053 726.429 20.272C726.738 20.528 726.994 20.8533 727.197 21.248C727.41 21.632 727.517 22.096 727.517 22.64C727.517 23.248 727.346 23.8187 727.005 24.352C726.664 24.8853 726.2 25.3173 725.613 25.648C725.037 25.968 724.381 26.128 723.645 26.128C722.909 26.128 722.253 25.968 721.677 25.648C721.101 25.3173 720.648 24.8853 720.317 24.352C719.986 23.8187 719.821 23.248 719.821 22.64ZM721.725 22.56C721.725 22.9227 721.81 23.2587 721.981 23.568C722.162 23.8667 722.397 24.1067 722.685 24.288C722.973 24.4693 723.293 24.56 723.645 24.56C724.018 24.56 724.354 24.4693 724.653 24.288C724.962 24.1067 725.208 23.8667 725.389 23.568C725.57 23.2587 725.661 22.9227 725.661 22.56C725.661 22.1973 725.57 21.8667 725.389 21.568C725.218 21.2693 724.989 21.0293 724.701 20.848C724.413 20.6667 724.088 20.5707 723.725 20.56C723.373 20.5493 723.042 20.6347 722.733 20.816C722.434 20.9867 722.189 21.2267 721.997 21.536C721.816 21.8347 721.725 22.176 721.725 22.56ZM722.605 17.968C722.605 18.256 722.717 18.5013 722.941 18.704C723.165 18.9067 723.421 19.008 723.709 19.008C723.986 19.008 724.232 18.9067 724.445 18.704C724.669 18.5013 724.781 18.256 724.781 17.968C724.781 17.6587 724.674 17.3973 724.461 17.184C724.248 16.9707 723.997 16.864 723.709 16.864C723.421 16.864 723.165 16.9707 722.941 17.184C722.717 17.3973 722.605 17.6587 722.605 17.968ZM731.587 22.608C731.064 22.608 730.563 22.464 730.083 22.176C729.603 21.888 729.208 21.488 728.899 20.976C728.6 20.464 728.451 19.8827 728.451 19.232C728.451 18.432 728.627 17.7493 728.979 17.184C729.341 16.6187 729.811 16.1867 730.387 15.888C730.963 15.5787 731.571 15.424 732.211 15.424C732.957 15.424 733.624 15.5893 734.211 15.92C734.797 16.24 735.261 16.688 735.603 17.264C735.955 17.84 736.131 18.496 736.131 19.232C736.131 20.0747 735.976 20.8427 735.667 21.536C735.357 22.2293 734.947 22.8533 734.435 23.408C733.923 23.9627 733.357 24.4747 732.739 24.944C732.12 25.4027 731.501 25.8347 730.883 26.24L729.635 24.88C730.509 24.464 731.272 24.016 731.923 23.536C732.573 23.0453 733.08 22.5493 733.443 22.048C733.816 21.5467 734.024 21.0667 734.067 20.608L734.563 20.64C734.253 21.2693 733.875 21.7547 733.427 22.096C732.989 22.4373 732.376 22.608 731.587 22.608ZM732.291 21.04C732.845 21.04 733.304 20.8747 733.667 20.544C734.029 20.2027 734.211 19.7867 734.211 19.296V18.976C734.211 18.6347 734.125 18.3253 733.955 18.048C733.784 17.76 733.555 17.5307 733.267 17.36C732.979 17.1787 732.653 17.088 732.291 17.088C731.939 17.088 731.613 17.1733 731.315 17.344C731.027 17.504 730.797 17.7333 730.627 18.032C730.456 18.3307 730.371 18.6827 730.371 19.088C730.371 19.4933 730.456 19.8453 730.627 20.144C730.808 20.432 731.043 20.656 731.331 20.816C731.619 20.9653 731.939 21.04 732.291 21.04ZM741.555 26.032C740.915 26.032 740.323 25.92 739.779 25.696C739.246 25.4613 738.776 25.1147 738.371 24.656C737.976 24.1973 737.667 23.6373 737.443 22.976C737.219 22.304 737.107 21.536 737.107 20.672C737.107 19.7333 737.214 18.928 737.427 18.256C737.64 17.5733 737.944 17.0133 738.339 16.576C738.734 16.1387 739.203 15.824 739.747 15.632C740.291 15.4293 740.894 15.328 741.555 15.328C742.184 15.328 742.766 15.4453 743.299 15.68C743.843 15.904 744.312 16.2453 744.707 16.704C745.112 17.152 745.427 17.712 745.651 18.384C745.875 19.0453 745.987 19.808 745.987 20.672C745.987 21.5573 745.875 22.336 745.651 23.008C745.427 23.68 745.112 24.24 744.707 24.688C744.312 25.136 743.843 25.472 743.299 25.696C742.766 25.92 742.184 26.032 741.555 26.032ZM741.539 24.256C742.126 24.256 742.6 24.1013 742.963 23.792C743.336 23.4827 743.608 23.056 743.779 22.512C743.96 21.9573 744.051 21.328 744.051 20.624C744.051 19.9413 743.96 19.3387 743.779 18.816C743.608 18.2827 743.336 17.8667 742.963 17.568C742.6 17.2587 742.126 17.1093 741.539 17.12C740.963 17.1093 740.488 17.2587 740.115 17.568C739.742 17.8773 739.47 18.2987 739.299 18.832C739.128 19.3653 739.043 19.9787 739.043 20.672C739.043 21.3547 739.128 21.968 739.299 22.512C739.47 23.056 739.742 23.4827 740.115 23.792C740.488 24.1013 740.963 24.256 741.539 24.256Z" fill="#F1F1F1"/>
<path d="M389.667 16.6666H380.333C379.803 16.6666 379.294 16.8773 378.919 17.2524C378.544 17.6275 378.333 18.1362 378.333 18.6666V25.3333C378.333 25.8637 378.544 26.3724 378.919 26.7475C379.294 27.1226 379.803 27.3333 380.333 27.3333H389.667C390.197 27.3333 390.706 27.1226 391.081 26.7475C391.456 26.3724 391.667 25.8637 391.667 25.3333V18.6666C391.667 18.1362 391.456 17.6275 391.081 17.2524C390.706 16.8773 390.197 16.6666 389.667 16.6666ZM380.333 18H389.667C389.843 18 390.013 18.0702 390.138 18.1952C390.263 18.3202 390.333 18.4898 390.333 18.6666L385 21.92L379.667 18.6666C379.667 18.4898 379.737 18.3202 379.862 18.1952C379.987 18.0702 380.156 18 380.333 18ZM390.333 25.3333C390.333 25.5101 390.263 25.6797 390.138 25.8047C390.013 25.9297 389.843 26 389.667 26H380.333C380.156 26 379.987 25.9297 379.862 25.8047C379.737 25.6797 379.667 25.5101 379.667 25.3333V20.1866L384.653 23.2333C384.755 23.2918 384.87 23.3226 384.987 23.3226C385.104 23.3226 385.219 23.2918 385.32 23.2333L390.333 20.1866V25.3333Z" fill="white"/>
<path d="M633.044 28.666H633.063C633.415 28.666 633.747 28.5274 633.999 28.2754L635.807 26.4674C635.869 26.4055 635.919 26.332 635.952 26.2512C635.986 26.1703 636.003 26.0836 636.003 25.996C636.003 25.9085 635.986 25.8218 635.952 25.7409C635.919 25.66 635.869 25.5866 635.807 25.5247L633.141 22.858C633.079 22.7961 633.005 22.7469 632.925 22.7134C632.844 22.6798 632.757 22.6626 632.669 22.6626C632.582 22.6626 632.495 22.6798 632.414 22.7134C632.333 22.7469 632.26 22.7961 632.198 22.858L631.135 23.9207C630.643 23.774 629.723 23.4407 629.141 22.858C628.558 22.2754 628.225 21.356 628.078 20.8634L629.141 19.8007C629.203 19.7388 629.252 19.6654 629.285 19.5845C629.319 19.5036 629.336 19.4169 629.336 19.3294C629.336 19.2418 629.319 19.1551 629.285 19.0742C629.252 18.9934 629.203 18.9199 629.141 18.858L626.474 16.1914C626.347 16.0711 626.178 16.0041 626.003 16.0041C625.827 16.0041 625.659 16.0711 625.531 16.1914L623.724 17.9994C623.471 18.2527 623.328 18.6007 623.333 18.956C623.349 19.9054 623.6 23.2027 626.199 25.8014C628.797 28.4 632.095 28.6507 633.044 28.666ZM626.003 17.6054L627.727 19.3294L626.865 20.1914C626.787 20.2696 626.729 20.3662 626.698 20.4724C626.666 20.5786 626.662 20.691 626.685 20.7994C626.701 20.876 627.092 22.694 628.199 23.8007C629.305 24.9074 631.123 25.2987 631.2 25.3147C631.308 25.3378 631.421 25.3334 631.527 25.3018C631.633 25.2703 631.73 25.2126 631.808 25.134L632.67 24.272L634.394 25.996L633.057 27.3327C632.225 27.3187 629.378 27.0954 627.141 24.858C624.897 22.614 624.68 19.7574 624.667 18.942L626.003 17.6054ZM635.333 21.3327H636.666C636.666 17.9127 634.084 15.3334 630.659 15.3334V16.6667C633.367 16.6667 635.333 18.6287 635.333 21.3327Z" fill="white"/>
<path d="M630.666 19.3333C632.068 19.3333 632.666 19.9313 632.666 21.3333H633.999C633.999 19.1833 632.816 18 630.666 18V19.3333Z" fill="white"/>
<path d="M1249.67 19L1255 24.3333L1260.33 19" stroke="white" stroke-linecap="round" stroke-linejoin="round"/>
<path d="M1317.67 19L1323 24.3333L1328.33 19" stroke="white" stroke-linecap="round" stroke-linejoin="round"/>
<path d="M1397 14C1397.49 14 1397.98 14.1466 1398.39 14.4213C1398.8 14.696 1399.12 15.0865 1399.31 15.5433C1399.5 16.0001 1399.55 16.5028 1399.45 16.9877C1399.36 17.4727 1399.12 17.9181 1398.77 18.2678C1398.42 18.6174 1397.97 18.8555 1397.49 18.952C1397 19.0484 1396.5 18.9989 1396.04 18.8097C1395.59 18.6205 1395.2 18.3 1394.92 17.8889C1394.65 17.4778 1394.5 16.9945 1394.5 16.5C1394.5 15.837 1394.76 15.2011 1395.23 14.7322C1395.7 14.2634 1396.34 14 1397 14ZM1397 13C1396.31 13 1395.63 13.2053 1395.06 13.5899C1394.48 13.9744 1394.03 14.5211 1393.77 15.1606C1393.5 15.8001 1393.43 16.5039 1393.57 17.1828C1393.7 17.8617 1394.04 18.4854 1394.53 18.9749C1395.01 19.4644 1395.64 19.7977 1396.32 19.9327C1397 20.0678 1397.7 19.9985 1398.34 19.7336C1398.98 19.4687 1399.53 19.0201 1399.91 18.4445C1400.29 17.8689 1400.5 17.1922 1400.5 16.5C1400.5 15.5717 1400.13 14.6815 1399.47 14.0251C1398.82 13.3687 1397.93 13 1397 13Z" fill="white"/>
<path d="M1402 27H1401V24.5C1401 24.1717 1400.94 23.8466 1400.81 23.5433C1400.68 23.24 1400.5 22.9644 1400.27 22.7322C1400.04 22.5001 1399.76 22.3159 1399.46 22.1903C1399.15 22.0647 1398.83 22 1398.5 22H1395.5C1394.84 22 1394.2 22.2634 1393.73 22.7322C1393.26 23.2011 1393 23.837 1393 24.5V27H1392V24.5C1392 23.5717 1392.37 22.6815 1393.03 22.0251C1393.68 21.3687 1394.57 21 1395.5 21H1398.5C1399.43 21 1400.32 21.3687 1400.97 22.0251C1401.63 22.6815 1402 23.5717 1402 24.5V27Z" fill="white"/>
<path d="M1495.44 16.0733C1494.73 15.3653 1493.79 14.9348 1492.8 14.8602C1491.8 14.7856 1490.81 15.0717 1490 15.6666C1489.15 15.0357 1488.1 14.7496 1487.05 14.866C1485.99 14.9823 1485.03 15.4925 1484.34 16.2937C1483.65 17.0949 1483.29 18.1276 1483.33 19.184C1483.37 20.2403 1483.81 21.2417 1484.56 21.9866L1489.53 26.9533C1489.59 27.0158 1489.66 27.0654 1489.74 27.0992C1489.82 27.1331 1489.91 27.1505 1490 27.1505C1490.09 27.1505 1490.18 27.1331 1490.26 27.0992C1490.34 27.0654 1490.41 27.0158 1490.47 26.9533L1495.44 21.9866C1495.83 21.5984 1496.14 21.1375 1496.35 20.6302C1496.56 20.1229 1496.67 19.5791 1496.67 19.03C1496.67 18.4808 1496.56 17.937 1496.35 17.4297C1496.14 16.9224 1495.83 16.4615 1495.44 16.0733ZM1494.5 21.0466L1490 25.54L1485.5 21.0466C1485.1 20.6484 1484.83 20.142 1484.72 19.5909C1484.61 19.0397 1484.67 18.4684 1484.88 17.9486C1485.1 17.4288 1485.46 16.9837 1485.92 16.669C1486.39 16.3544 1486.94 16.1843 1487.5 16.18C1488.25 16.1818 1488.97 16.4815 1489.5 17.0133C1489.56 17.0758 1489.64 17.1254 1489.72 17.1592C1489.8 17.1931 1489.89 17.2105 1489.97 17.2105C1490.06 17.2105 1490.15 17.1931 1490.23 17.1592C1490.31 17.1254 1490.38 17.0758 1490.45 17.0133C1490.99 16.5405 1491.7 16.2927 1492.42 16.32C1493.14 16.3472 1493.82 16.6475 1494.33 17.1601C1494.84 17.6726 1495.14 18.3592 1495.16 19.0807C1495.18 19.8023 1494.92 20.505 1494.45 21.0466H1494.5Z" fill="white"/>
<path d="M1526.5 13.25C1526.5 13.0511 1526.58 12.8603 1526.72 12.7197C1526.86 12.579 1527.05 12.5 1527.25 12.5H1527.81C1528.76 12.5 1529.33 13.139 1529.65 13.733C1529.87 14.129 1530.03 14.588 1530.15 15.004C1530.18 15.0014 1530.22 15 1530.25 15H1542.75C1543.58 15 1544.18 15.794 1543.95 16.593L1542.12 23.002C1541.96 23.5769 1541.61 24.0827 1541.13 24.4428C1540.66 24.803 1540.08 24.9979 1539.48 24.998H1533.53C1532.93 24.998 1532.34 24.8002 1531.86 24.4349C1531.38 24.0696 1531.04 23.557 1530.88 22.976L1530.12 20.204L1528.86 15.956L1528.86 15.948C1528.7 15.381 1528.55 14.85 1528.34 14.454C1528.13 14.069 1527.96 14 1527.81 14H1527.25C1527.05 14 1526.86 13.921 1526.72 13.7803C1526.58 13.6397 1526.5 13.4489 1526.5 13.25ZM1531.57 19.84L1532.32 22.579C1532.47 23.121 1532.97 23.498 1533.53 23.498H1539.48C1539.75 23.498 1540.01 23.4095 1540.23 23.2458C1540.45 23.0821 1540.61 22.8523 1540.68 22.591L1542.42 16.5H1530.59L1531.56 19.787L1531.57 19.84Z" fill="white"/>
<path d="M1535 28C1535 28.5304 1534.79 29.0391 1534.41 29.4142C1534.04 29.7893 1533.53 30 1533 30C1532.47 30 1531.96 29.7893 1531.59 29.4142C1531.21 29.0391 1531 28.5304 1531 28C1531 27.4696 1531.21 26.9609 1531.59 26.5858C1531.96 26.2107 1532.47 26 1533 26C1533.53 26 1534.04 26.2107 1534.41 26.5858C1534.79 26.9609 1535 27.4696 1535 28ZM1533.5 28C1533.5 27.8674 1533.45 27.7402 1533.35 27.6464C1533.26 27.5527 1533.13 27.5 1533 27.5C1532.87 27.5 1532.74 27.5527 1532.65 27.6464C1532.55 27.7402 1532.5 27.8674 1532.5 28C1532.5 28.1326 1532.55 28.2598 1532.65 28.3536C1532.74 28.4473 1532.87 28.5 1533 28.5C1533.13 28.5 1533.26 28.4473 1533.35 28.3536C1533.45 28.2598 1533.5 28.1326 1533.5 28Z" fill="white"/>
<path d="M1542 28C1542 28.5304 1541.79 29.0391 1541.41 29.4142C1541.04 29.7893 1540.53 30 1540 30C1539.47 30 1538.96 29.7893 1538.59 29.4142C1538.21 29.0391 1538 28.5304 1538 28C1538 27.4696 1538.21 26.9609 1538.59 26.5858C1538.96 26.2107 1539.47 26 1540 26C1540.53 26 1541.04 26.2107 1541.41 26.5858C1541.79 26.9609 1542 27.4696 1542 28ZM1540.5 28C1540.5 27.8674 1540.45 27.7402 1540.35 27.6464C1540.26 27.5527 1540.13 27.5 1540 27.5C1539.87 27.5 1539.74 27.5527 1539.65 27.6464C1539.55 27.7402 1539.5 27.8674 1539.5 28C1539.5 28.1326 1539.55 28.2598 1539.65 28.3536C1539.74 28.4473 1539.87 28.5 1540 28.5C1540.13 28.5 1540.26 28.4473 1540.35 28.3536C1540.45 28.2598 1540.5 28.1326 1540.5 28Z" fill="white"/>
</svg>
