<svg width="20" height="20" viewBox="0 0 20 20" fill="none" xmlns="http://www.w3.org/2000/svg">
<circle cx="10.0017" cy="9.70874" r="9.70874" fill="#151875"/>
<path d="M14.2437 7.40728C14.2385 7.01511 14.1651 6.62684 14.0268 6.25983C13.9068 5.95027 13.7236 5.66913 13.4889 5.43437C13.2541 5.19962 12.973 5.01642 12.6634 4.89647C12.3011 4.76047 11.9184 4.68694 11.5315 4.67899C11.0334 4.65673 10.8754 4.65051 9.61097 4.65051C8.3465 4.65051 8.18443 4.65051 7.68993 4.67899C7.30322 4.68699 6.92066 4.76053 6.55854 4.89647C6.24893 5.01633 5.96774 5.19951 5.73298 5.43427C5.49821 5.66903 5.31504 5.95022 5.19517 6.25983C5.0589 6.62184 4.98553 7.00449 4.97822 7.39122C4.95595 7.88987 4.94922 8.04779 4.94922 9.31226C4.94922 10.5767 4.94922 10.7383 4.97822 11.2333C4.98598 11.6206 5.05899 12.0027 5.19517 12.3657C5.31524 12.6752 5.49855 12.9563 5.73339 13.191C5.96824 13.4256 6.24945 13.6087 6.55906 13.7286C6.92019 13.87 7.30281 13.9488 7.69045 13.9616C8.18909 13.9838 8.34702 13.9906 9.61148 13.9906C10.8759 13.9906 11.038 13.9906 11.5325 13.9616C11.9194 13.954 12.3022 13.8806 12.6644 13.7446C12.9739 13.6245 13.255 13.4413 13.4897 13.2065C13.7245 12.9718 13.9077 12.6907 14.0278 12.3813C14.164 12.0188 14.237 11.6367 14.2448 11.2488C14.267 10.7507 14.2737 10.5928 14.2737 9.32779C14.2727 8.06333 14.2727 7.90281 14.2437 7.40728ZM9.60786 11.7035C8.2854 11.7035 7.21407 10.6321 7.21407 9.30967C7.21407 7.98721 8.2854 6.91588 9.60786 6.91588C10.2427 6.91588 10.8516 7.16809 11.3005 7.61701C11.7494 8.06593 12.0016 8.6748 12.0016 9.30967C12.0016 9.94454 11.7494 10.5534 11.3005 11.0023C10.8516 11.4513 10.2427 11.7035 9.60786 11.7035ZM12.0969 7.38553C11.7878 7.38553 11.5387 7.13595 11.5387 6.82734C11.5387 6.75407 11.5532 6.68152 11.5812 6.61383C11.6092 6.54614 11.6503 6.48463 11.7021 6.43283C11.754 6.38102 11.8155 6.33992 11.8832 6.31188C11.9508 6.28384 12.0234 6.26941 12.0967 6.26941C12.1699 6.26941 12.2425 6.28384 12.3102 6.31188C12.3779 6.33992 12.4394 6.38102 12.4912 6.43283C12.543 6.48463 12.5841 6.54614 12.6121 6.61383C12.6402 6.68152 12.6546 6.75407 12.6546 6.82734C12.6546 7.13595 12.405 7.38553 12.0969 7.38553Z" fill="white"/>
<path d="M9.60964 10.8644C10.4684 10.8644 11.1646 10.1682 11.1646 9.30941C11.1646 8.45063 10.4684 7.75446 9.60964 7.75446C8.75086 7.75446 8.05469 8.45063 8.05469 9.30941C8.05469 10.1682 8.75086 10.8644 9.60964 10.8644Z" fill="white"/>
</svg>
