<svg width="14" height="12" viewBox="0 0 14 12" fill="none" xmlns="http://www.w3.org/2000/svg">
<path d="M11.6668 0.666626H2.3335C1.80306 0.666626 1.29436 0.87734 0.919283 1.25241C0.54421 1.62749 0.333496 2.13619 0.333496 2.66663V9.33329C0.333496 9.86372 0.54421 10.3724 0.919283 10.7475C1.29436 11.1226 1.80306 11.3333 2.3335 11.3333H11.6668C12.1973 11.3333 12.706 11.1226 13.081 10.7475C13.4561 10.3724 13.6668 9.86372 13.6668 9.33329V2.66663C13.6668 2.13619 13.4561 1.62749 13.081 1.25241C12.706 0.87734 12.1973 0.666626 11.6668 0.666626ZM2.3335 1.99996H11.6668C11.8436 1.99996 12.0132 2.0702 12.1382 2.19522C12.2633 2.32025 12.3335 2.48981 12.3335 2.66663L7.00016 5.91996L1.66683 2.66663C1.66683 2.48981 1.73707 2.32025 1.86209 2.19522C1.98712 2.0702 2.15669 1.99996 2.3335 1.99996ZM12.3335 9.33329C12.3335 9.5101 12.2633 9.67967 12.1382 9.8047C12.0132 9.92972 11.8436 9.99996 11.6668 9.99996H2.3335C2.15669 9.99996 1.98712 9.92972 1.86209 9.8047C1.73707 9.67967 1.66683 9.5101 1.66683 9.33329V4.18663L6.6535 7.23329C6.75484 7.2918 6.8698 7.32261 6.98683 7.32261C7.10385 7.32261 7.21882 7.2918 7.32016 7.23329L12.3335 4.18663V9.33329Z" fill="white"/>
</svg>
