<svg width="16" height="14" viewBox="0 0 16 14" fill="none" xmlns="http://www.w3.org/2000/svg">
<path d="M14.1202 1.4576C13.3239 0.66111 12.2682 0.176849 11.1451 0.0928904C10.022 0.00893152 8.90605 0.330851 8.00021 1.0001C7.04595 0.290333 5.8582 -0.031512 4.67615 0.0993826C3.49409 0.230277 2.40554 0.804188 1.62969 1.70554C0.853837 2.6069 0.448323 3.76874 0.494807 4.95711C0.541292 6.14548 1.03632 7.27211 1.88021 8.1101L7.46771 13.6976C7.53743 13.7679 7.62038 13.8237 7.71177 13.8618C7.80317 13.8998 7.9012 13.9195 8.00021 13.9195C8.09922 13.9195 8.19724 13.8998 8.28864 13.8618C8.38003 13.8237 8.46298 13.7679 8.53271 13.6976L14.1202 8.1101C14.5572 7.6734 14.9039 7.15486 15.1404 6.58413C15.3769 6.0134 15.4986 5.40165 15.4986 4.78385C15.4986 4.16606 15.3769 3.55431 15.1404 2.98358C14.9039 2.41285 14.5572 1.89431 14.1202 1.4576V1.4576ZM13.0627 7.0526L8.00021 12.1076L2.93771 7.0526C2.49159 6.60463 2.18769 6.03489 2.06413 5.41486C1.94057 4.79483 2.00285 4.15212 2.24317 3.56735C2.48349 2.98258 2.89113 2.4818 3.41497 2.12782C3.9388 1.77384 4.5555 1.58243 5.18771 1.5776C6.03229 1.57967 6.84153 1.91686 7.43771 2.5151C7.50743 2.5854 7.59038 2.6412 7.68177 2.67927C7.77317 2.71735 7.8712 2.73695 7.97021 2.73695C8.06922 2.73695 8.16724 2.71735 8.25864 2.67927C8.35003 2.6412 8.43298 2.5854 8.50271 2.5151C9.11645 1.98327 9.90933 1.70446 10.7209 1.73512C11.5324 1.76578 12.302 2.10362 12.8738 2.68025C13.4457 3.25688 13.7771 4.02923 13.8011 4.841C13.825 5.65276 13.5396 6.4433 13.0027 7.0526H13.0627Z" fill="#535399"/>
</svg>
