<svg width="56" height="12" viewBox="0 0 56 12" fill="none" xmlns="http://www.w3.org/2000/svg">
<circle cx="6" cy="6" r="6" fill="#151875"/>
<path d="M6.68689 8.63898V6.01626H7.57169L7.70321 4.98938H6.68689V4.3353C6.68689 4.03898 6.76945 3.8361 7.19473 3.8361H7.73361V2.92058C7.47142 2.89248 7.20787 2.87891 6.94417 2.87994C6.16209 2.87994 5.62513 3.35738 5.62513 4.23386V4.98746H4.74609V6.01434H5.62705V8.63898H6.68689Z" fill="white"/>
<circle cx="50" cy="6" r="6" fill="#151875"/>
<g clip-path="url(#clip0_1_2992)">
<path d="M53.4861 3.49972C53.2189 3.61812 52.9319 3.69812 52.6301 3.73428C52.9415 3.54797 53.1744 3.25475 53.2855 2.90932C52.993 3.08307 52.6728 3.20538 52.3389 3.27092C52.1144 3.03119 51.817 2.8723 51.493 2.81891C51.1689 2.76552 50.8362 2.82061 50.5467 2.97564C50.2571 3.13067 50.0269 3.37695 49.8916 3.67626C49.7564 3.97557 49.7237 4.31116 49.7988 4.63092C49.206 4.60116 48.6262 4.44709 48.0968 4.17873C47.5675 3.91036 47.1005 3.53369 46.7261 3.07316C46.5981 3.29396 46.5245 3.54996 46.5245 3.8226C46.5244 4.06804 46.5848 4.30972 46.7005 4.52619C46.8162 4.74267 46.9835 4.92725 47.1876 5.06356C46.9509 5.05603 46.7194 4.99206 46.5124 4.877V4.8962C46.5124 5.24043 46.6314 5.57408 46.8494 5.84052C47.0674 6.10695 47.3708 6.28977 47.7082 6.35796C47.4886 6.41739 47.2584 6.42614 47.0349 6.38356C47.1301 6.67975 47.3156 6.93877 47.5653 7.12433C47.815 7.3099 48.1165 7.41273 48.4276 7.41844C47.8995 7.83297 47.2474 8.05783 46.5761 8.05684C46.4571 8.05687 46.3383 8.04992 46.2202 8.03604C46.9016 8.47417 47.6949 8.7067 48.505 8.7058C51.2474 8.7058 52.7466 6.43444 52.7466 4.46452C52.7466 4.40052 52.745 4.33588 52.7421 4.27188C53.0337 4.06099 53.2855 3.79984 53.4855 3.50068L53.4861 3.49972Z" fill="white"/>
</g>
<circle cx="28" cy="6" r="6" fill="#FB2E86"/>
<path d="M30.6224 4.5777C30.6192 4.33534 30.5738 4.09539 30.4883 3.86858C30.4142 3.67727 30.301 3.50353 30.1559 3.35845C30.0108 3.21337 29.8371 3.10015 29.6458 3.02602C29.4219 2.94198 29.1854 2.89653 28.9463 2.89162C28.6384 2.87786 28.5408 2.87402 27.7594 2.87402C26.9779 2.87402 26.8778 2.87402 26.5722 2.89162C26.3332 2.89657 26.0968 2.94201 25.873 3.02602C25.6816 3.1001 25.5079 3.2133 25.3628 3.35839C25.2177 3.50347 25.1045 3.67724 25.0304 3.86858C24.9462 4.09231 24.9009 4.32878 24.8963 4.56778C24.8826 4.87594 24.8784 4.97354 24.8784 5.75498C24.8784 6.53642 24.8784 6.63626 24.8963 6.94218C24.9011 7.18154 24.9463 7.4177 25.0304 7.64202C25.1046 7.83331 25.2179 8.00701 25.363 8.15203C25.5082 8.29705 25.682 8.41021 25.8733 8.48426C26.0965 8.57169 26.3329 8.62038 26.5725 8.62826C26.8807 8.64202 26.9783 8.64618 27.7597 8.64618C28.5411 8.64618 28.6413 8.64618 28.9469 8.62826C29.186 8.62355 29.4225 8.57822 29.6464 8.49418C29.8377 8.41997 30.0114 8.30672 30.1564 8.16165C30.3015 8.01659 30.4148 7.84288 30.489 7.65162C30.5731 7.42762 30.6183 7.19146 30.6231 6.95178C30.6368 6.64394 30.641 6.54634 30.641 5.76458C30.6403 4.98314 30.6403 4.88394 30.6224 4.5777ZM27.7575 7.23274C26.9402 7.23274 26.2781 6.57066 26.2781 5.75338C26.2781 4.9361 26.9402 4.27402 27.7575 4.27402C28.1498 4.27402 28.5261 4.42988 28.8035 4.70732C29.081 4.98475 29.2368 5.36103 29.2368 5.75338C29.2368 6.14573 29.081 6.52201 28.8035 6.79945C28.5261 7.07688 28.1498 7.23274 27.7575 7.23274ZM29.2957 4.56426C29.1047 4.56426 28.9507 4.41002 28.9507 4.2193C28.9507 4.17402 28.9597 4.12919 28.977 4.08735C28.9943 4.04552 29.0197 4.00751 29.0517 3.97549C29.0837 3.94348 29.1218 3.91808 29.1636 3.90075C29.2054 3.88342 29.2503 3.8745 29.2955 3.8745C29.3408 3.8745 29.3857 3.88342 29.4275 3.90075C29.4693 3.91808 29.5073 3.94348 29.5393 3.97549C29.5714 4.00751 29.5968 4.04552 29.6141 4.08735C29.6314 4.12919 29.6403 4.17402 29.6403 4.2193C29.6403 4.41002 29.4861 4.56426 29.2957 4.56426Z" fill="white"/>
<path d="M27.7578 6.71416C28.2886 6.71416 28.7188 6.28392 28.7188 5.7532C28.7188 5.22247 28.2886 4.79224 27.7578 4.79224C27.2271 4.79224 26.7969 5.22247 26.7969 5.7532C26.7969 6.28392 27.2271 6.71416 27.7578 6.71416Z" fill="white"/>
<defs>
<clipPath id="clip0_1_2992">
<rect width="7.68" height="7.68" fill="white" transform="translate(45.9199 1.91992)"/>
</clipPath>
</defs>
</svg>
