<svg width="69" height="12" viewBox="0 0 69 12" fill="none" xmlns="http://www.w3.org/2000/svg">
<path d="M10.642 4.1378L7.66664 3.70538L6.33656 1.00889C6.30024 0.935063 6.24047 0.875297 6.16664 0.838969C5.98149 0.747563 5.75649 0.823735 5.66391 1.00889L4.33383 3.70538L1.35844 4.1378C1.27641 4.14952 1.20141 4.18819 1.14399 4.24678C1.07457 4.31813 1.03631 4.41413 1.03763 4.51367C1.03895 4.61321 1.07973 4.70815 1.15102 4.77764L3.30375 6.87647L2.79516 9.84014C2.78323 9.90908 2.79086 9.97999 2.81718 10.0448C2.8435 10.1096 2.88746 10.1658 2.94407 10.2069C3.00068 10.248 3.06767 10.2725 3.13746 10.2774C3.20725 10.2824 3.27704 10.2677 3.33891 10.2351L6.00024 8.83584L8.66156 10.2351C8.73422 10.2737 8.8186 10.2866 8.89946 10.2726C9.10336 10.2374 9.24047 10.044 9.20531 9.84014L8.69672 6.87647L10.8495 4.77764C10.908 4.72022 10.9467 4.64522 10.9584 4.56319C10.9901 4.35811 10.8471 4.16827 10.642 4.1378Z" fill="#FFC416"/>
<path d="M25.642 4.1378L22.6666 3.70538L21.3366 1.00889C21.3002 0.935063 21.2405 0.875297 21.1666 0.838969C20.9815 0.747563 20.7565 0.823735 20.6639 1.00889L19.3338 3.70538L16.3584 4.1378C16.2764 4.14952 16.2014 4.18819 16.144 4.24678C16.0746 4.31813 16.0363 4.41413 16.0376 4.51367C16.0389 4.61321 16.0797 4.70815 16.151 4.77764L18.3038 6.87647L17.7952 9.84014C17.7832 9.90908 17.7909 9.97999 17.8172 10.0448C17.8435 10.1096 17.8875 10.1658 17.9441 10.2069C18.0007 10.248 18.0677 10.2725 18.1375 10.2774C18.2072 10.2824 18.277 10.2677 18.3389 10.2351L21.0002 8.83584L23.6616 10.2351C23.7342 10.2737 23.8186 10.2866 23.8995 10.2726C24.1034 10.2374 24.2405 10.044 24.2053 9.84014L23.6967 6.87647L25.8495 4.77764C25.908 4.72022 25.9467 4.64522 25.9584 4.56319C25.9901 4.35811 25.8471 4.16827 25.642 4.1378Z" fill="#FFC416"/>
<path d="M39.642 4.1378L36.6666 3.70538L35.3366 1.00889C35.3002 0.935063 35.2405 0.875297 35.1666 0.838969C34.9815 0.747563 34.7565 0.823735 34.6639 1.00889L33.3338 3.70538L30.3584 4.1378C30.2764 4.14952 30.2014 4.18819 30.144 4.24678C30.0746 4.31813 30.0363 4.41413 30.0376 4.51367C30.0389 4.61321 30.0797 4.70815 30.151 4.77764L32.3038 6.87647L31.7952 9.84014C31.7832 9.90908 31.7909 9.97999 31.8172 10.0448C31.8435 10.1096 31.8875 10.1658 31.9441 10.2069C32.0007 10.248 32.0677 10.2725 32.1375 10.2774C32.2072 10.2824 32.277 10.2677 32.3389 10.2351L35.0002 8.83584L37.6616 10.2351C37.7342 10.2737 37.8186 10.2866 37.8995 10.2726C38.1034 10.2374 38.2405 10.044 38.2053 9.84014L37.6967 6.87647L39.8495 4.77764C39.908 4.72022 39.9467 4.64522 39.9584 4.56319C39.9901 4.35811 39.8471 4.16827 39.642 4.1378Z" fill="#FFC416"/>
<path d="M53.642 4.1378L50.6666 3.70538L49.3366 1.00889C49.3002 0.935063 49.2405 0.875297 49.1666 0.838969C48.9815 0.747563 48.7565 0.823735 48.6639 1.00889L47.3338 3.70538L44.3584 4.1378C44.2764 4.14952 44.2014 4.18819 44.144 4.24678C44.0746 4.31813 44.0363 4.41413 44.0376 4.51367C44.0389 4.61321 44.0797 4.70815 44.151 4.77764L46.3038 6.87647L45.7952 9.84014C45.7832 9.90908 45.7909 9.97999 45.8172 10.0448C45.8435 10.1096 45.8875 10.1658 45.9441 10.2069C46.0007 10.248 46.0677 10.2725 46.1375 10.2774C46.2072 10.2824 46.277 10.2677 46.3389 10.2351L49.0002 8.83584L51.6616 10.2351C51.7342 10.2737 51.8186 10.2866 51.8995 10.2726C52.1034 10.2374 52.2405 10.044 52.2053 9.84014L51.6967 6.87647L53.8495 4.77764C53.908 4.72022 53.9467 4.64522 53.9584 4.56319C53.9901 4.35811 53.8471 4.16827 53.642 4.1378Z" fill="#FFC416"/>
<path d="M67.642 4.1378L64.6666 3.70538L63.3366 1.00889C63.3002 0.935063 63.2405 0.875297 63.1666 0.838969C62.9815 0.747563 62.7565 0.823735 62.6639 1.00889L61.3338 3.70538L58.3584 4.1378C58.2764 4.14952 58.2014 4.18819 58.144 4.24678C58.0746 4.31813 58.0363 4.41413 58.0376 4.51367C58.0389 4.61321 58.0797 4.70815 58.151 4.77764L60.3038 6.87647L59.7952 9.84014C59.7832 9.90908 59.7909 9.97999 59.8172 10.0448C59.8435 10.1096 59.8875 10.1658 59.9441 10.2069C60.0007 10.248 60.0677 10.2725 60.1375 10.2774C60.2072 10.2824 60.277 10.2677 60.3389 10.2351L63.0002 8.83584L65.6616 10.2351C65.7342 10.2737 65.8186 10.2866 65.8995 10.2726C66.1034 10.2374 66.2405 10.044 66.2053 9.84014L65.6967 6.87647L67.8495 4.77764C67.908 4.72022 67.9467 4.64522 67.9584 4.56319C67.9901 4.35811 67.8471 4.16827 67.642 4.1378Z" fill="#FFC416"/>
</svg>
