<svg width="20" height="20" viewBox="0 0 20 20" fill="none" xmlns="http://www.w3.org/2000/svg">
<circle cx="10.2908" cy="9.70874" r="9.70874" fill="#151875"/>
<path d="M15.929 5.66306C15.4967 5.85464 15.0322 5.98409 14.5439 6.04261C15.0477 5.74114 15.4247 5.26667 15.6044 4.70772C15.131 4.98888 14.613 5.18678 14.0727 5.29283C13.7094 4.90493 13.2282 4.64782 12.7038 4.56143C12.1794 4.47503 11.6412 4.56418 11.1726 4.81503C10.7041 5.06589 10.3315 5.46441 10.1127 5.94873C9.89383 6.43305 9.84102 6.97607 9.96242 7.49348C9.0033 7.44532 8.06502 7.19603 7.20847 6.76178C6.35192 6.32753 5.59626 5.71803 4.99052 4.97283C4.7834 5.33011 4.6643 5.74435 4.6643 6.18552C4.66407 6.58267 4.76187 6.97373 4.94903 7.32402C5.13619 7.67431 5.40691 7.97298 5.73718 8.19354C5.35415 8.18136 4.97958 8.07786 4.64463 7.89167V7.92273C4.64459 8.47975 4.83726 9.01963 5.18996 9.45076C5.54266 9.88189 6.03366 10.1777 6.57964 10.288C6.22432 10.3842 5.85179 10.3984 5.49019 10.3295C5.64424 10.8087 5.9443 11.2279 6.34838 11.5281C6.75245 11.8284 7.24031 11.9948 7.74365 12.004C6.8892 12.6748 5.83395 13.0386 4.74767 13.037C4.55524 13.0371 4.36298 13.0259 4.17188 13.0034C5.27452 13.7123 6.55807 14.0886 7.86896 14.0871C12.3065 14.0871 14.7324 10.4118 14.7324 7.22422C14.7324 7.12066 14.7298 7.01607 14.7251 6.91251C15.197 6.57126 15.6043 6.1487 15.928 5.66461L15.929 5.66306Z" fill="white"/>
</svg>
